<svg width="22" height="23" viewBox="0 0 22 23" fill="none" xmlns="http://www.w3.org/2000/svg">
<path d="M4.75 7.75H10.75M5.5 11.75H10M20.75 4.75V7.17C20.75 8.75 19.75 9.75 18.17 9.75H14.75V2.76C14.75 1.65 15.66 0.75 16.77 0.75C17.86 0.76 18.86 1.2 19.58 1.92C20.3 2.65 20.75 3.65 20.75 4.75ZM0.75 19.75C0.75 20.58 1.68998 21.05 2.34998 20.55L4.06 19.27C4.46 18.97 5.02 19.01 5.38 19.37L7.03998 21.04C7.42998 21.43 8.07002 21.43 8.46002 21.04L10.14 19.36C10.49 19.01 11.05 18.97 11.44 19.27L13.15 20.55C13.81 21.04 14.75 20.57 14.75 19.75V2.75C14.75 1.65 15.65 0.75 16.75 0.75H4.75C1.75 0.75 0.75 2.54 0.75 4.75V19.75Z" stroke="#AAAAAA" stroke-width="1.5" stroke-linecap="round" stroke-linejoin="round"/>
</svg>
