<svg width="32" height="32" viewBox="0 0 32 32" fill="none" xmlns="http://www.w3.org/2000/svg">
<path d="M6.66406 11.0401C4.1974 11.8001 2.66406 13.8001 2.66406 17.3334V22.6667C2.66406 27.3334 5.33073 29.3334 9.33073 29.3334H22.6641C26.6641 29.3334 29.3307 27.3334 29.3307 22.6667V17.3334C29.3307 13.8001 27.7974 11.8001 25.3307 11.0401M6.66406 11.0401C7.46406 10.7868 8.3574 10.6667 9.33073 10.6667H22.6641C23.6374 10.6667 24.5307 10.7868 25.3307 11.0401M6.66406 11.0401V9.33341C6.66406 7.86675 7.86406 6.66675 9.33073 6.66675H22.6641C24.1307 6.66675 25.3307 7.86675 25.3307 9.33341V11.0401M21.3307 4.68009V6.66675H10.6641V4.68009C10.6641 3.57343 11.5707 2.66675 12.6774 2.66675H19.3174C20.424 2.66675 21.3307 3.57343 21.3307 4.68009Z" stroke="#727272" stroke-width="2" stroke-linecap="round" stroke-linejoin="round"/>
</svg>
