<svg width="32" height="32" viewBox="0 0 32 32" fill="none" xmlns="http://www.w3.org/2000/svg">
<path d="M21.3359 4V9.33333M10.6693 4V9.33333M5.33594 14.6667H26.6693M9.33594 18.6667H9.35327M13.3493 18.6667H13.3559M17.3493 18.6667H17.3559M21.3559 18.6667H21.3626M17.3559 22.6667H17.3626M9.34927 22.6667H9.35594M13.3493 22.6667H13.3559M5.33594 9.33333C5.33594 8.62609 5.61689 7.94781 6.11699 7.44772C6.61708 6.94762 7.29536 6.66667 8.0026 6.66667H24.0026C24.7098 6.66667 25.3881 6.94762 25.8882 7.44772C26.3883 7.94781 26.6693 8.62609 26.6693 9.33333V25.3333C26.6693 26.0406 26.3883 26.7189 25.8882 27.219C25.3881 27.719 24.7098 28 24.0026 28H8.0026C7.29536 28 6.61708 27.719 6.11699 27.219C5.61689 26.7189 5.33594 26.0406 5.33594 25.3333V9.33333Z" stroke="#727272" stroke-width="2" stroke-linecap="round" stroke-linejoin="round"/>
</svg>
