<svg width="31" height="24" viewBox="0 0 31 24" fill="none" xmlns="http://www.w3.org/2000/svg">
<g clip-path="url(#clip0_3037_1619)">
<path d="M5.63566 23.8808V22.2923C5.63566 21.6833 5.26341 21.2863 4.62537 21.2863C4.30641 21.2863 3.96081 21.3921 3.72153 21.7363C3.53553 21.4451 3.26973 21.2863 2.87096 21.2863C2.60504 21.2863 2.33936 21.3656 2.1266 21.6569V21.3392H1.56836V23.8808H2.1266V22.4776C2.1266 22.0276 2.36588 21.8157 2.73812 21.8157C3.11012 21.8157 3.29637 22.054 3.29637 22.4776V23.8808H3.85461V22.4776C3.85461 22.0276 4.12029 21.8157 4.46589 21.8157C4.83813 21.8157 5.02413 22.054 5.02413 22.4776V23.8808H5.63566ZM13.9028 21.3392H12.9991V20.5714H12.4409V21.3392H11.9358V21.8421H12.4408V23.0071C12.4408 23.5897 12.68 23.9337 13.3181 23.9337C13.5574 23.9337 13.823 23.8544 14.0093 23.7485L13.8497 23.2719C13.6902 23.3778 13.5042 23.4043 13.3712 23.4043C13.1054 23.4043 12.9991 23.2455 12.9991 22.9806V21.8421H13.9028V21.3392ZM18.6347 21.2861C18.3157 21.2861 18.1031 21.4451 17.9701 21.6569V21.3392H17.4119V23.8808H17.9701V22.4512C17.9701 22.0276 18.1561 21.7893 18.5017 21.7893C18.6081 21.7893 18.741 21.8158 18.8473 21.8422L19.0068 21.3128C18.9005 21.2863 18.741 21.2863 18.6347 21.2863M11.4839 21.5511C11.218 21.3657 10.8458 21.2864 10.4471 21.2864C9.80915 21.2864 9.38387 21.604 9.38387 22.1071C9.38387 22.5308 9.70283 22.769 10.2611 22.8484L10.5269 22.875C10.8193 22.9278 10.9788 23.0073 10.9788 23.1397C10.9788 23.3249 10.7662 23.4574 10.3939 23.4574C10.0217 23.4574 9.72935 23.3249 9.54323 23.1926L9.27743 23.6162C9.56987 23.828 9.96863 23.9339 10.3673 23.9339C11.1116 23.9339 11.537 23.5898 11.537 23.1132C11.537 22.6631 11.1914 22.4248 10.6597 22.3454L10.3939 22.3189C10.1546 22.2923 9.96863 22.2395 9.96863 22.0807C9.96863 21.8953 10.1546 21.7894 10.4471 21.7894C10.7662 21.7894 11.0851 21.9217 11.2446 22.0012L11.4839 21.5511ZM26.3173 21.2864C25.9982 21.2864 25.7855 21.4452 25.6526 21.657V21.3393H25.0943V23.8809H25.6526V22.4513C25.6526 22.0277 25.8387 21.7894 26.1842 21.7894C26.2906 21.7894 26.4236 21.8159 26.5299 21.8424L26.6894 21.3129C26.5831 21.2864 26.4236 21.2864 26.3173 21.2864ZM19.1929 22.6101C19.1929 23.3779 19.7246 23.9339 20.5487 23.9339C20.9208 23.9339 21.1866 23.8545 21.4524 23.6427L21.1866 23.1926C20.974 23.3515 20.7614 23.4308 20.5221 23.4308C20.0702 23.4308 19.7512 23.1132 19.7512 22.6101C19.7512 22.1336 20.0702 21.8158 20.5221 21.7894C20.7614 21.7894 20.974 21.8688 21.1866 22.0277L21.4524 21.5776C21.1866 21.3657 20.9208 21.2864 20.5487 21.2864C19.7246 21.2864 19.1929 21.8424 19.1929 22.6101ZM24.3501 22.6101V21.3393H23.7918V21.657C23.6057 21.4188 23.3399 21.2864 22.9943 21.2864C22.2766 21.2864 21.7184 21.8424 21.7184 22.6101C21.7184 23.3779 22.2766 23.9339 22.9943 23.9339C23.3664 23.9339 23.6324 23.8016 23.7918 23.5632V23.8809H24.3501V22.6101ZM22.3031 22.6101C22.3031 22.16 22.5956 21.7894 23.074 21.7894C23.5259 21.7894 23.845 22.1336 23.845 22.6101C23.845 23.0602 23.5259 23.4308 23.074 23.4308C22.5956 23.4043 22.3031 23.0602 22.3031 22.6101ZM15.6309 21.2864C14.8865 21.2864 14.3548 21.8158 14.3548 22.6101C14.3548 23.4044 14.8864 23.9339 15.6574 23.9339C16.0295 23.9339 16.4017 23.828 16.6942 23.5898L16.4283 23.1926C16.2156 23.3515 15.9498 23.4574 15.684 23.4574C15.3384 23.4574 14.9928 23.2985 14.913 22.8483H16.8005V22.6367C16.8271 21.8158 16.3487 21.2864 15.6309 21.2864ZM15.6307 21.7629C15.9762 21.7629 16.2156 21.9748 16.2687 22.3719H14.9395C14.9927 22.0277 15.232 21.7629 15.6307 21.7629ZM29.4805 22.6101V20.3333H28.9222V21.657C28.7361 21.4188 28.4703 21.2864 28.1247 21.2864C27.407 21.2864 26.8487 21.8424 26.8487 22.6101C26.8487 23.3779 27.407 23.9339 28.1247 23.9339C28.4969 23.9339 28.7627 23.8016 28.9222 23.5632V23.8809H29.4805V22.6101ZM27.4336 22.6101C27.4336 22.16 27.7259 21.7894 28.2045 21.7894C28.6564 21.7894 28.9754 22.1336 28.9754 22.6101C28.9754 23.0602 28.6564 23.4308 28.2045 23.4308C27.7259 23.4043 27.4336 23.0602 27.4336 22.6101ZM8.77223 22.6101V21.3393H8.21398V21.657C8.02786 21.4188 7.76206 21.2864 7.41646 21.2864C6.69874 21.2864 6.1405 21.8424 6.1405 22.6101C6.1405 23.3779 6.69874 23.9339 7.41646 23.9339C7.7887 23.9339 8.0545 23.8016 8.21398 23.5632V23.8809H8.77223V22.6101ZM6.69874 22.6101C6.69874 22.16 6.99118 21.7894 7.46962 21.7894C7.92154 21.7894 8.24063 22.1336 8.24063 22.6101C8.24063 23.0602 7.92154 23.4308 7.46962 23.4308C6.99118 23.4043 6.69874 23.0602 6.69874 22.6101Z" fill="black"/>
<path d="M11.2979 2.03857H19.6715V17.0236H11.2979V2.03857Z" fill="#FF5F00"/>
<path d="M11.8295 9.53114C11.8295 6.48651 13.265 3.78597 15.4713 2.03855C13.8499 0.767759 11.803 0 9.57004 0C4.27982 0 0 4.26247 0 9.53114C0 14.7998 4.27982 19.0623 9.56992 19.0623C11.8029 19.0623 13.8497 18.2945 15.4713 17.0236C13.265 15.3027 11.8295 12.5758 11.8295 9.53114Z" fill="#EB001B"/>
<path d="M30.9693 9.53114C30.9693 14.7997 26.6895 19.0623 21.3994 19.0623C19.1665 19.0623 17.1196 18.2945 15.498 17.0236C17.731 15.2763 19.1399 12.5758 19.1399 9.53114C19.1399 6.48651 17.7044 3.78597 15.498 2.03855C17.1195 0.767759 19.1665 0 21.3994 0C26.6895 0 30.9693 4.28901 30.9693 9.53114Z" fill="#F79E1B"/>
</g>
<defs>
<clipPath id="clip0_3037_1619">
<rect width="31" height="24" fill="white"/>
</clipPath>
</defs>
</svg>
