<svg width="29" height="24" viewBox="0 0 29 24" fill="none" xmlns="http://www.w3.org/2000/svg">
<path d="M1 8.61905H27.6667M6.92593 16.2381H6.94074M12.8519 16.2381H15.8148M1 5.57143C1 4.35901 1.46825 3.19625 2.30175 2.33894C3.13524 1.48163 4.2657 1 5.44444 1H23.2222C24.401 1 25.5314 1.48163 26.3649 2.33894C27.1984 3.19625 27.6667 4.35901 27.6667 5.57143V17.7619C27.6667 18.9743 27.1984 20.1371 26.3649 20.9944C25.5314 21.8517 24.401 22.3333 23.2222 22.3333H5.44444C4.2657 22.3333 3.13524 21.8517 2.30175 20.9944C1.46825 20.1371 1 18.9743 1 17.7619V5.57143Z" stroke="black" stroke-width="2" stroke-linecap="round" stroke-linejoin="round"/>
</svg>
