<svg width="32" height="32" viewBox="0 0 32 32" fill="none" xmlns="http://www.w3.org/2000/svg">
<path d="M29.3346 16.6667H25.3346C23.868 16.6667 22.668 17.8667 22.668 19.3334C22.668 20.8001 23.868 22.0001 25.3346 22.0001H29.3346M29.3346 16.0001V22.6667C29.3346 26.6667 26.668 29.3334 22.668 29.3334H9.33464C5.33464 29.3334 2.66797 26.6667 2.66797 22.6667V16.0001C2.66797 12.3734 4.85464 9.84008 8.25464 9.41341C8.6013 9.36008 8.9613 9.33341 9.33464 9.33341H22.668C23.0146 9.33341 23.348 9.34673 23.668 9.40007C27.108 9.80007 29.3346 12.3467 29.3346 16.0001ZM23.6698 9.40008C23.3498 9.34675 23.0165 9.33343 22.6698 9.33343H9.33651C8.96318 9.33343 8.60318 9.36009 8.25651 9.41343C8.44318 9.04009 8.70984 8.69343 9.02984 8.37343L13.3632 4.02675C15.1898 2.21341 18.1498 2.21341 19.9765 4.02675L22.3098 6.38677C23.1632 7.22677 23.6165 8.29341 23.6698 9.40008Z" stroke="black" stroke-width="2" stroke-linecap="round" stroke-linejoin="round"/>
</svg>
