<svg width="19" height="19" viewBox="0 0 19 19" fill="none" xmlns="http://www.w3.org/2000/svg">
<path d="M12.4167 9.83333V13.3333C12.4167 16.25 11.25 17.4167 8.33333 17.4167H4.83333C1.91667 17.4167 0.75 16.25 0.75 13.3333V9.83333C0.75 6.91667 1.91667 5.75 4.83333 5.75H8.33333M12.4167 9.83333C12.4167 6.91667 11.25 5.75 8.33333 5.75M12.4167 9.83333V12.4167H13.3333C16.25 12.4167 17.4167 11.25 17.4167 8.33333V4.83333C17.4167 1.91667 16.25 0.75 13.3333 0.75H9.83333C6.91667 0.75 5.75 1.91667 5.75 4.83333V5.75H8.33333" stroke="#AAAAAA" stroke-width="1.5" stroke-linecap="round" stroke-linejoin="round"/>
</svg>
