<svg width="22" height="22" viewBox="0 0 22 22" fill="none" xmlns="http://www.w3.org/2000/svg">
<path d="M18.65 12.25H2.85C1.35 12.25 0.75 12.89 0.75 14.48V18.52C0.75 20.11 1.35 20.75 2.85 20.75H18.65C20.15 20.75 20.75 20.11 20.75 18.52V14.48C20.75 12.89 20.15 12.25 18.65 12.25Z" stroke="black" stroke-width="1.5" stroke-linecap="round" stroke-linejoin="round"/>
<path d="M18.65 0.75H2.85C1.35 0.75 0.75 1.39 0.75 2.98V7.02C0.75 8.61 1.35 9.25 2.85 9.25H18.65C20.15 9.25 20.75 8.61 20.75 7.02V2.98C20.75 1.39 20.15 0.75 18.65 0.75Z" stroke="black" stroke-width="1.5" stroke-linecap="round" stroke-linejoin="round"/>
</svg>
