<svg width="22" height="22" viewBox="0 0 22 22" fill="none" xmlns="http://www.w3.org/2000/svg">
<path d="M17.08 0.749971C17.44 0.749971 17.81 0.829971 18.17 0.999971C18.53 1.16997 18.87 1.38997 19.19 1.67997C19.73 2.16997 20.12 2.70997 20.37 3.31997C20.62 3.91997 20.75 4.56997 20.75 5.26997C20.75 6.28997 20.51 7.37997 20.02 8.52997C19.53 9.67997 18.87 10.83 18.04 11.97C17.2 13.12 16.27 14.21 15.24 15.25C14.2 16.28 13.11 17.21 11.97 18.04C10.83 18.86 9.69 19.52 8.56 20C7.42 20.48 6.33 20.72 5.29 20.72C4.61 20.72 3.96 20.6 3.36 20.36C2.75 20.12 2.19 19.74 1.69 19.21C1.06 18.57 0.75 17.87 0.75 17.13C0.75 16.85 0.81 16.57 0.93 16.32C1.05 16.06 1.23 15.83 1.49 15.65L4.76 13.33C5.01 13.15 5.24 13.02 5.46 12.93C5.67 12.84 5.88 12.79 6.07 12.79C6.31 12.79 6.55 12.86 6.78 13C7.01 13.13 7.25 13.32 7.49 13.56L8.28 14.32C8.39 14.43 8.52 14.48 8.68 14.48C8.76 14.48 8.83 14.47 8.91 14.45C8.99 14.42 9.05 14.39 9.11 14.37C9.44 14.19 9.87 13.88 10.39 13.44C10.91 12.99 11.44 12.51 11.97 11.99C12.5 11.45 12.99 10.93 13.44 10.4C13.88 9.87997 14.18 9.44997 14.36 9.10997C14.38 9.05997 14.41 8.99997 14.44 8.92997C14.47 8.84997 14.48 8.76997 14.48 8.67997C14.48 8.50997 14.42 8.37997 14.31 8.26997L13.56 7.50997C13.31 7.25997 13.12 7.01997 13 6.78997C12.86 6.55997 12.79 6.32997 12.79 6.07997C12.79 5.88997 12.83 5.68997 12.92 5.46997C13.01 5.24997 13.14 5.01997 13.31 4.76997L15.66 1.45997C15.84 1.19997 16.05 1.01997 16.3 0.909971C16.55 0.809971 16.8 0.749971 17.08 0.749971Z" stroke="white" stroke-width="1.5" stroke-miterlimit="10"/>
</svg>
