<svg width="22" height="22" viewBox="0 0 22 22" fill="none" xmlns="http://www.w3.org/2000/svg">
<path d="M10.75 12.75H11.75C12.85 12.75 13.75 11.85 13.75 10.75M13.75 10.75V0.75H4.75C3.25 0.75 1.94001 1.57999 1.26001 2.79999M13.75 10.75V3.75H15.59C16.31 3.75 16.97 4.14001 17.33 4.76001L19.04 7.75M0.75 15.75C0.75 17.41 2.09 18.75 3.75 18.75H4.75M4.75 18.75C4.75 17.65 5.65 16.75 6.75 16.75M4.75 18.75C4.75 19.8546 5.64543 20.75 6.75 20.75C7.85457 20.75 8.75 19.8546 8.75 18.75M4.75 18.75C4.75 17.6454 5.64543 16.75 6.75 16.75M6.75 16.75C7.85 16.75 8.75 17.65 8.75 18.75M6.75 16.75C7.85457 16.75 8.75 17.6454 8.75 18.75M8.75 18.75H12.75M12.75 18.75C12.75 17.65 13.65 16.75 14.75 16.75M12.75 18.75C12.75 19.8546 13.6454 20.75 14.75 20.75C15.8546 20.75 16.75 19.8546 16.75 18.75M12.75 18.75C12.75 17.6454 13.6454 16.75 14.75 16.75M14.75 16.75C15.85 16.75 16.75 17.65 16.75 18.75M14.75 16.75C15.8546 16.75 16.75 17.6454 16.75 18.75M16.75 18.75H17.75C19.41 18.75 20.75 17.41 20.75 15.75V12.75M20.75 12.75H17.75C17.2 12.75 16.75 12.3 16.75 11.75V8.75C16.75 8.2 17.2 7.75 17.75 7.75H19.04M20.75 12.75V10.75L19.04 7.75M0.75 6.75H6.75M0.75 9.75H4.75M0.75 12.75H2.75" stroke="black" stroke-width="1.5" stroke-linecap="round" stroke-linejoin="round"/>
</svg>
