<svg width="22" height="22" viewBox="0 0 22 22" fill="none" xmlns="http://www.w3.org/2000/svg">
<path d="M5.45001 8.01L10.75 11.08L16.01 8.03M10.75 16.52V11.07M20.75 13.75C20.75 17.62 17.62 20.75 13.75 20.75L14.8 19M0.75 7.75C0.75 3.88 3.88 0.75 7.75 0.75L6.70001 2.5M9.51001 5.04L6.31 6.82C5.59 7.22 4.98999 8.23 4.98999 9.06V12.45C4.98999 13.28 5.58 14.29 6.31 14.69L9.51001 16.47C10.19 16.85 11.31 16.85 12 16.47L15.2 14.69C15.92 14.29 16.52 13.28 16.52 12.45V9.05C16.52 8.22 15.93 7.21 15.2 6.81L12 5.03C11.31 4.65 10.19 4.65 9.51001 5.04Z" stroke="black" stroke-width="1.5" stroke-linecap="round" stroke-linejoin="round"/>
</svg>
