<svg width="22" height="22" viewBox="0 0 22 22" fill="none" xmlns="http://www.w3.org/2000/svg">
<path d="M8.08864 20.75C9.83021 20.2301 11.6706 20.2301 13.4122 20.75M10.75 0.75V1.75M3.75 3.75L4.75 4.75M17.75 3.75L16.75 4.75M20.75 10.75H19.75M1.75 10.75H0.75M7.93654 17.5826V16.6548C6.18737 15.5431 4.75 13.3755 4.75 11.072C4.75 7.11278 8.21032 4.00942 12.1193 4.90523C13.8381 5.30515 15.3439 6.50491 16.1272 8.16057C17.7167 11.5199 16.0436 15.0872 13.5871 16.6468V17.5746C13.5871 17.8066 13.6708 18.3425 12.857 18.3425H8.66663C7.83007 18.3505 7.93654 18.0066 7.93654 17.5826Z" stroke="#AAAAAA" stroke-width="1.5" stroke-linecap="round"/>
</svg>
