<svg width="40" height="40" viewBox="0 0 40 40" fill="none" xmlns="http://www.w3.org/2000/svg">
<path d="M20 37.9167C10.1167 37.9167 2.08337 29.8834 2.08337 20C2.08337 10.1167 10.1167 2.08337 20 2.08337C29.8834 2.08337 37.9167 10.1167 37.9167 20C37.9167 29.8834 29.8834 37.9167 20 37.9167ZM20 4.58337C11.5 4.58337 4.58337 11.5 4.58337 20C4.58337 28.5 11.5 35.4167 20 35.4167C28.5 35.4167 35.4167 28.5 35.4167 20C35.4167 11.5 28.5 4.58337 20 4.58337Z" fill="#005600"/>
<path d="M17.6334 25.9667C17.3 25.9667 16.9834 25.8334 16.75 25.6L12.0334 20.8834C11.55 20.4 11.55 19.6 12.0334 19.1167C12.5167 18.6334 13.3167 18.6334 13.8 19.1167L17.6334 22.95L26.2 14.3834C26.6834 13.9 27.4834 13.9 27.9667 14.3834C28.45 14.8667 28.45 15.6667 27.9667 16.15L18.5167 25.6C18.2834 25.8334 17.9667 25.9667 17.6334 25.9667Z" fill="#005600"/>
</svg>
