<svg width="37" height="36" viewBox="0 0 37 36" fill="none" xmlns="http://www.w3.org/2000/svg">
<path d="M2.3 10.0666L17.0166 18.5832L31.6333 10.1165M17.0166 33.6834V18.5667M33.0333 19.0501V12.95C33.0333 10.65 31.3833 7.85004 29.3666 6.73337L20.4667 1.8C18.5667 0.733333 15.4666 0.733333 13.5666 1.8L4.66664 6.73337C2.64997 7.85004 1 10.65 1 12.95V22.3834C1 24.6834 2.64997 27.4834 4.66664 28.6L13.5666 33.5334C14.5166 34.0667 15.7666 34.3334 17.0166 34.3334C18.2666 34.3334 19.5167 34.0667 20.4667 33.5334M35.35 34.3333L33.6833 32.6667M34.35 28C34.35 30.9455 31.9622 33.3334 29.0167 33.3334C26.0711 33.3334 23.6833 30.9455 23.6833 28C23.6833 25.0545 26.0711 22.6667 29.0167 22.6667C31.9622 22.6667 34.35 25.0545 34.35 28Z" stroke="black" stroke-width="2" stroke-linecap="round" stroke-linejoin="round"/>
</svg>
