<svg width="36" height="36" viewBox="0 0 36 36" fill="none" xmlns="http://www.w3.org/2000/svg">
<path d="M25.9458 21.7333C28.2292 22.1167 30.7458 21.7167 32.5125 20.5333C34.8625 18.9667 34.8625 16.4 32.5125 14.8333C30.7292 13.65 28.1792 13.25 25.8958 13.65M9.32916 21.7333C7.04583 22.1167 4.52917 21.7167 2.7625 20.5333C0.4125 18.9667 0.4125 16.4 2.7625 14.8333C4.54583 13.65 7.09583 13.25 9.37916 13.65M27.6625 9.60001C27.5625 9.58334 27.4458 9.58334 27.3458 9.60001C25.0458 9.51667 23.2125 7.63334 23.2125 5.3C23.2125 2.91667 25.1292 1 27.5125 1C29.8958 1 31.8125 2.93334 31.8125 5.3C31.7958 7.63334 29.9625 9.51667 27.6625 9.60001ZM7.6125 9.60001C7.7125 9.58334 7.82916 9.58334 7.92916 9.60001C10.2292 9.51667 12.0625 7.63334 12.0625 5.3C12.0625 2.91667 10.1458 1 7.7625 1C5.37917 1 3.4625 2.93334 3.4625 5.3C3.47916 7.63334 5.3125 9.51667 7.6125 9.60001ZM17.6625 22.05C17.5625 22.0333 17.4458 22.0333 17.3458 22.05C15.0458 21.9667 13.2125 20.0833 13.2125 17.75C13.2125 15.3667 15.1292 13.45 17.5125 13.45C19.8958 13.45 21.8125 15.3833 21.8125 17.75C21.7958 20.0833 19.9625 21.9833 17.6625 22.05ZM12.8125 27.3C10.4625 28.8667 10.4625 31.4333 12.8125 33C15.4792 34.7833 19.8458 34.7833 22.5125 33C24.8625 31.4333 24.8625 28.8667 22.5125 27.3C19.8625 25.5333 15.4792 25.5333 12.8125 27.3Z" stroke="black" stroke-width="2" stroke-linecap="round" stroke-linejoin="round"/>
</svg>
