<svg width="36" height="36" viewBox="0 0 36 36" fill="none" xmlns="http://www.w3.org/2000/svg">
<path d="M6.77 28.4V23.5333C6.77 21.9167 8.03667 20.4667 9.83667 20.4667C11.4533 20.4667 12.9033 21.7333 12.9033 23.5333V28.2167C12.9033 31.4667 10.2033 34.1667 6.95333 34.1667C3.70333 34.1667 1.00333 31.45 1.00333 28.2167V17.95C0.820001 8.58333 8.22 1 17.5867 1C26.9533 1 34.3367 8.58333 34.3367 17.7667V28.0333C34.3367 31.2833 31.6367 33.9833 28.3867 33.9833C25.1367 33.9833 22.4367 31.2833 22.4367 28.0333V23.35C22.4367 21.7333 23.7033 20.2833 25.5033 20.2833C27.12 20.2833 28.57 21.55 28.57 23.35V28.4" stroke="black" stroke-width="2" stroke-linecap="round" stroke-linejoin="round"/>
</svg>
