<svg width="24" height="24" viewBox="0 0 24 24" fill="none" xmlns="http://www.w3.org/2000/svg">
<path d="M7.96535 6.20206C7.77949 6.17484 7.58992 6.21226 7.42835 6.30806H7.41435C7.03935 6.52806 6.70135 6.80506 6.41335 7.13106C6.17335 7.40806 6.04335 7.68806 6.00935 7.95806C5.98935 8.11806 6.00335 8.28006 6.05035 8.43306L6.06835 8.44306C6.33835 9.23606 6.69035 9.99906 7.12035 10.7171C7.67505 11.7254 8.35733 12.6581 9.15035 13.4921L9.17435 13.5261L9.21235 13.5541L9.23535 13.5811L9.26335 13.6051C10.1003 14.4004 11.0352 15.0859 12.0453 15.6451C13.2003 16.2741 13.9013 16.5711 14.3223 16.6951V16.7011C14.4453 16.7391 14.5573 16.7561 14.6703 16.7561C15.0291 16.7303 15.3687 16.5845 15.6343 16.3421C15.9593 16.0541 16.2343 15.7151 16.4483 15.3381V15.3311C16.6493 14.9511 16.5813 14.5931 16.2913 14.3501C15.7093 13.8405 15.0794 13.3884 14.4103 13.0001C13.9623 12.7571 13.5073 12.9041 13.3233 13.1501L12.9303 13.6461C12.7283 13.8921 12.3623 13.8581 12.3623 13.8581L12.3523 13.8641C9.62135 13.1671 8.89235 10.4021 8.89235 10.4021C8.89235 10.4021 8.85835 10.0261 9.11135 9.83406L9.60335 9.43806C9.83935 9.24606 10.0033 8.79206 9.75035 8.34406C9.36293 7.67548 8.91183 7.04589 8.40335 6.46406C8.29212 6.32744 8.13635 6.23433 7.96335 6.20106M12.5803 5.00006C12.4477 5.00006 12.3206 5.05274 12.2268 5.1465C12.133 5.24027 12.0803 5.36745 12.0803 5.50006C12.0803 5.63267 12.133 5.75984 12.2268 5.85361C12.3206 5.94738 12.4477 6.00006 12.5803 6.00006C13.8443 6.00006 14.8943 6.41306 15.7253 7.20506C16.1523 7.63806 16.4853 8.15106 16.7033 8.71306C16.9223 9.27606 17.0223 9.87706 16.9963 10.4791C16.9908 10.6117 17.0381 10.7411 17.1279 10.8388C17.2178 10.9365 17.3427 10.9945 17.4753 11.0001C17.608 11.0056 17.7373 10.9583 17.8351 10.8685C17.9328 10.7786 17.9908 10.6537 17.9963 10.5211C18.0262 9.78062 17.9033 9.04196 17.6353 8.35106C17.3662 7.65664 16.9562 7.02542 16.4313 6.49706L16.4213 6.48706C15.3903 5.50206 14.0863 5.00006 12.5803 5.00006Z" fill="white"/>
<path d="M12.5453 6.64406C12.4127 6.64406 12.2856 6.69674 12.1918 6.7905C12.098 6.88427 12.0453 7.01145 12.0453 7.14406C12.0453 7.27667 12.098 7.40384 12.1918 7.49761C12.2856 7.59138 12.4127 7.64406 12.5453 7.64406H12.5623C13.4743 7.70906 14.1383 8.01306 14.6033 8.51206C15.0803 9.02606 15.3273 9.66506 15.3083 10.4551C15.3053 10.5877 15.3551 10.7161 15.4467 10.812C15.5383 10.9079 15.6642 10.9635 15.7968 10.9666C15.9295 10.9696 16.0578 10.9199 16.1538 10.8282C16.2497 10.7366 16.3053 10.6107 16.3083 10.4781C16.3323 9.44106 15.9983 8.54606 15.3363 7.83206V7.83006C14.6593 7.10406 13.7303 6.72006 12.6123 6.64506L12.5953 6.64306L12.5453 6.64406Z" fill="white"/>
<path d="M12.5264 8.31906C12.4594 8.31315 12.392 8.32079 12.3281 8.34152C12.2642 8.36225 12.2052 8.39564 12.1545 8.4397C12.1037 8.48376 12.0624 8.53758 12.033 8.59796C12.0036 8.65833 11.9866 8.72402 11.9831 8.79111C11.9796 8.85819 11.9896 8.92529 12.0127 8.9884C12.0357 9.05151 12.0712 9.10933 12.117 9.15842C12.1629 9.20751 12.2181 9.24686 12.2795 9.27412C12.3409 9.30137 12.4072 9.31598 12.4743 9.31706C12.8924 9.33906 13.1593 9.46506 13.3273 9.63406C13.4963 9.80406 13.6224 10.0771 13.6454 10.5041C13.6466 10.5712 13.6613 10.6373 13.6887 10.6986C13.7161 10.7599 13.7555 10.815 13.8046 10.8608C13.8537 10.9065 13.9116 10.9418 13.9746 10.9647C14.0377 10.9876 14.1048 10.9976 14.1718 10.9941C14.2388 10.9905 14.3044 10.9735 14.3647 10.944C14.425 10.9146 14.4788 10.8733 14.5228 10.8226C14.5668 10.7719 14.6001 10.7129 14.6208 10.6491C14.6416 10.5853 14.6492 10.5179 14.6433 10.4511C14.6114 9.85106 14.4234 9.32106 14.0384 8.93106C13.6514 8.54106 13.1243 8.35106 12.5264 8.31906Z" fill="white"/>
<path fill-rule="evenodd" clip-rule="evenodd" d="M7.06735 2.38406C10.2494 1.67276 13.5493 1.67276 16.7313 2.38406L17.0703 2.45906C18.0003 2.66754 18.8544 3.12949 19.5378 3.7937C20.2213 4.45792 20.7074 5.29843 20.9423 6.22206C21.7508 9.40485 21.7508 12.7393 20.9423 15.9221C20.7074 16.8457 20.2213 17.6862 19.5378 18.3504C18.8544 19.0146 18.0003 19.4766 17.0703 19.6851L16.7303 19.7601C14.7373 20.2051 12.6923 20.373 10.6533 20.2591L8.00035 22.6331C7.90033 22.7226 7.77811 22.7837 7.64644 22.8099C7.51477 22.8361 7.37848 22.8265 7.2518 22.782C7.12511 22.7376 7.01268 22.6599 6.92624 22.5572C6.83979 22.4545 6.7825 22.3305 6.76035 22.1981L6.32135 19.5761C5.47976 19.3137 4.71942 18.8401 4.11285 18.2004C3.50627 17.5608 3.07369 16.7764 2.85635 15.9221C2.04788 12.7393 2.04788 9.40485 2.85635 6.22206C3.09129 5.29843 3.57744 4.45792 4.26089 3.7937C4.94434 3.12949 5.79839 2.66754 6.72835 2.45906L7.06735 2.38406ZM16.4043 3.84706C13.4376 3.18386 10.3611 3.18386 7.39435 3.84706L7.05435 3.92306C6.39531 4.07124 5.79013 4.39892 5.30583 4.86981C4.82152 5.3407 4.47698 5.93644 4.31035 6.59106C3.56334 9.53169 3.56334 12.6124 4.31035 15.5531C4.47706 16.2078 4.82175 16.8036 5.30625 17.2745C5.79074 17.7454 6.39613 18.073 7.05535 18.2211L7.14535 18.2411C7.29094 18.2736 7.42352 18.3489 7.52612 18.4572C7.62873 18.5655 7.6967 18.7019 7.72135 18.8491L8.01535 20.6071L9.88735 18.9321C9.96211 18.865 10.0496 18.8136 10.1446 18.7809C10.2396 18.7483 10.3401 18.7351 10.4403 18.7421C12.4394 18.8832 14.4484 18.7333 16.4043 18.2971L16.7433 18.2211C17.4026 18.073 18.008 17.7454 18.4925 17.2745C18.9769 16.8036 19.3216 16.2078 19.4883 15.5531C20.2344 12.6131 20.2344 9.53206 19.4883 6.59106C19.3216 5.93631 18.9769 5.34049 18.4925 4.86959C18.008 4.39868 17.4026 4.07108 16.7433 3.92306L16.4043 3.84706Z" fill="white"/>
</svg>
